<svg width="546" height="91" viewBox="0 0 546 91" fill="none" xmlns="http://www.w3.org/2000/svg">
<path d="M511.612 89.984C510.417 89.984 509.436 89.6 508.668 88.832C507.985 88.064 507.644 87.168 507.644 86.144V4.60799H515.58V86.144C515.58 87.168 515.196 88.064 514.428 88.832C513.66 89.6 512.721 89.984 511.612 89.984ZM481.148 7.68C480.124 7.68 479.228 7.33867 478.46 6.656C477.692 5.97333 477.308 5.07733 477.308 3.96799C477.308 2.944 477.692 2.09067 478.46 1.408C479.228 0.725329 480.124 0.383995 481.148 0.383995H542.076C543.1 0.383995 543.996 0.725329 544.764 1.408C545.532 2.09067 545.916 2.98667 545.916 4.096C545.916 5.20533 545.532 6.10133 544.764 6.784C543.996 7.38133 543.1 7.68 542.076 7.68H481.148Z" fill="black"/>
<path d="M438.44 10.24L407.336 87.552C406.994 88.4053 406.525 89.0453 405.928 89.472C405.33 89.8987 404.648 90.112 403.88 90.112C402.685 90.112 401.789 89.8133 401.192 89.216C400.594 88.5333 400.253 87.7227 400.168 86.784C400.082 86.3573 400.125 85.8453 400.296 85.248L434.088 2.56C434.514 1.62133 435.026 0.981333 435.624 0.639999C436.306 0.213333 437.074 0 437.928 0C438.781 0 439.506 0.255999 440.104 0.767998C440.786 1.19466 441.298 1.792 441.64 2.56L475.304 84.864C475.474 85.376 475.56 85.888 475.56 86.4C475.56 87.5947 475.176 88.5333 474.408 89.216C473.64 89.8133 472.744 90.112 471.72 90.112C470.866 90.112 470.098 89.8987 469.416 89.472C468.818 88.96 468.349 88.32 468.008 87.552L436.136 9.728L438.44 10.24ZM414.76 64.128L417.96 56.576H457.64L459.176 64.128H414.76Z" fill="black"/>
<path d="M339.578 0.383995H386.554C387.578 0.383995 388.474 0.767995 389.242 1.536C390.01 2.21866 390.394 3.11466 390.394 4.224C390.394 5.33333 390.01 6.22933 389.242 6.91199C388.474 7.59466 387.578 7.936 386.554 7.936H335.738V40.064H380.794C381.818 40.064 382.714 40.448 383.482 41.216C384.25 41.984 384.634 42.88 384.634 43.904C384.634 45.0133 384.25 45.9093 383.482 46.592C382.714 47.2747 381.818 47.616 380.794 47.616H335.738V82.432H386.554C387.578 82.432 388.474 82.816 389.242 83.584C390.01 84.352 390.394 85.248 390.394 86.272C390.394 87.3813 390.01 88.2773 389.242 88.96C388.474 89.6427 387.578 89.984 386.554 89.984H339.578C338.554 89.984 337.658 89.6 336.89 88.832C336.122 88.064 335.738 87.168 335.738 86.144V4.224C335.738 3.2 336.122 2.304 336.89 1.536C337.658 0.767995 338.554 0.383995 339.578 0.383995Z" fill="black"/>
<path d="M290.123 0.383995C297.291 0.383995 302.88 2.34666 306.891 6.272C310.987 10.112 313.035 15.488 313.035 22.4C313.035 25.984 312.267 29.3973 310.731 32.64C309.195 35.8827 306.933 38.528 303.947 40.576C300.96 42.5387 297.248 43.648 292.811 43.904L292.299 41.344C295.456 41.344 298.528 41.8133 301.515 42.752C304.587 43.6053 307.317 45.0133 309.707 46.976C312.096 48.9387 314.016 51.4133 315.467 54.4C316.917 57.3013 317.643 60.8427 317.643 65.024C317.643 69.4613 316.875 73.3013 315.339 76.544C313.888 79.7013 311.883 82.2613 309.323 84.224C306.848 86.1867 303.989 87.6373 300.747 88.576C297.504 89.5147 294.133 89.984 290.635 89.984H256.203C255.179 89.984 254.283 89.6 253.515 88.832C252.747 88.064 252.363 87.168 252.363 86.144V4.224C252.363 3.2 252.747 2.304 253.515 1.536C254.283 0.767995 255.179 0.383995 256.203 0.383995H290.123ZM289.099 7.936H259.019L260.555 5.632V41.856L259.147 39.936H289.099C293.536 39.8507 297.248 38.4 300.235 35.584C303.307 32.768 304.843 28.5867 304.843 23.04C304.843 18.3467 303.477 14.6773 300.747 12.032C298.016 9.30133 294.133 7.936 289.099 7.936ZM289.995 47.616H259.915L260.555 46.848V83.584L259.787 82.432H290.251C295.712 82.432 300.277 81.0667 303.947 78.336C307.616 75.52 309.451 71.0827 309.451 65.024C309.451 60.7573 308.555 57.344 306.763 54.784C304.971 52.224 302.581 50.3893 299.595 49.28C296.608 48.1707 293.408 47.616 289.995 47.616Z" fill="black"/>
<path d="M201.737 89.984C200.542 89.984 199.561 89.6 198.793 88.832C198.11 88.064 197.769 87.168 197.769 86.144V4.60799H205.705V86.144C205.705 87.168 205.321 88.064 204.553 88.832C203.785 89.6 202.846 89.984 201.737 89.984ZM171.273 7.68C170.249 7.68 169.353 7.33867 168.585 6.656C167.817 5.97333 167.433 5.07733 167.433 3.96799C167.433 2.944 167.817 2.09067 168.585 1.408C169.353 0.725329 170.249 0.383995 171.273 0.383995H232.201C233.225 0.383995 234.121 0.725329 234.889 1.408C235.657 2.09067 236.041 2.98667 236.041 4.096C236.041 5.20533 235.657 6.10133 234.889 6.784C234.121 7.38133 233.225 7.68 232.201 7.68H171.273Z" fill="black"/>
<path d="M95.5897 89.984C94.3097 89.984 93.243 89.6 92.3897 88.832C91.6217 88.064 91.2377 87.168 91.2377 86.144V4.224C91.2377 3.2 91.6217 2.304 92.3897 1.536C93.1577 0.767995 94.0537 0.383995 95.0777 0.383995H129.638C134.502 0.383995 138.854 1.45066 142.694 3.584C146.534 5.632 149.52 8.49066 151.654 12.16C153.872 15.8293 154.982 19.968 154.982 24.576C154.982 28.3307 154.299 31.7867 152.934 34.944C151.568 38.1013 149.648 40.7893 147.174 43.008C144.699 45.1413 141.926 46.72 138.854 47.744L134.374 46.336C137.531 46.592 140.475 47.616 143.206 49.408C145.936 51.1147 148.112 53.504 149.734 56.576C151.44 59.5627 152.336 63.1893 152.422 67.456C152.507 71.1253 152.678 73.984 152.934 76.032C153.275 78.08 153.744 79.616 154.342 80.64C154.939 81.664 155.707 82.4747 156.646 83.072C157.499 83.584 158.054 84.3093 158.31 85.248C158.651 86.1867 158.566 87.0827 158.054 87.936C157.712 88.6187 157.2 89.1307 156.518 89.472C155.92 89.728 155.28 89.856 154.598 89.856C153.915 89.856 153.232 89.6853 152.55 89.344C151.355 88.6613 150.118 87.5947 148.838 86.144C147.643 84.6933 146.619 82.56 145.766 79.744C144.998 76.928 144.614 73.0027 144.614 67.968C144.614 64.64 144.059 61.9093 142.95 59.776C141.926 57.6427 140.56 56.0213 138.854 54.912C137.232 53.7173 135.398 52.9067 133.35 52.48C131.387 51.968 129.51 51.712 127.718 51.712H97.8937L99.3017 49.92V86.144C99.3017 87.168 98.9603 88.064 98.2777 88.832C97.595 89.6 96.699 89.984 95.5897 89.984ZM97.8937 44.672H130.022C132.923 44.416 135.654 43.4773 138.214 41.856C140.774 40.1493 142.822 37.8453 144.358 34.944C145.979 32.0427 146.79 28.672 146.79 24.832C146.79 19.968 145.126 15.9573 141.798 12.8C138.555 9.55733 134.288 7.936 128.998 7.936H98.4057L99.3017 6.144V46.464L97.8937 44.672Z" fill="black"/>
<path d="M38.3147 10.24L7.21067 87.552C6.86933 88.4053 6.4 89.0453 5.80267 89.472C5.20533 89.8987 4.52267 90.112 3.75467 90.112C2.56 90.112 1.664 89.8133 1.06667 89.216C0.469333 88.5333 0.128 87.7227 0.0426667 86.784C-0.0426667 86.3573 0 85.8453 0.170667 85.248L33.9627 2.56C34.3893 1.62133 34.9013 0.981333 35.4987 0.639999C36.1813 0.213333 36.9493 0 37.8027 0C38.656 0 39.3813 0.255999 39.9787 0.767998C40.6613 1.19466 41.1733 1.792 41.5147 2.56L75.1787 84.864C75.3493 85.376 75.4347 85.888 75.4347 86.4C75.4347 87.5947 75.0507 88.5333 74.2827 89.216C73.5147 89.8133 72.6187 90.112 71.5947 90.112C70.7413 90.112 69.9733 89.8987 69.2907 89.472C68.6933 88.96 68.224 88.32 67.8827 87.552L36.0107 9.728L38.3147 10.24ZM14.6347 64.128L17.8347 56.576H57.5147L59.0507 64.128H14.6347Z" fill="black"/>
</svg>
