<svg width="557" height="97" viewBox="0 0 557 97" fill="none" xmlns="http://www.w3.org/2000/svg">
<path d="M0 96.384L40.448 0H41.216L81.536 96.384H67.328L37.12 19.456L45.952 13.696L12.16 96.384H0ZM23.68 61.312H58.112L62.208 72.064H20.096L23.68 61.312Z" fill="black"/>
<path d="M123.542 3.84C128.235 3.84 132.545 4.48 136.47 5.76C140.481 6.95467 143.937 8.78933 146.838 11.264C149.825 13.6533 152.129 16.64 153.75 20.224C155.457 23.7227 156.31 27.8187 156.31 32.512C156.31 36.1813 155.755 39.7653 154.646 43.264C153.622 46.7627 151.873 49.9627 149.398 52.864C146.923 55.68 143.681 57.984 139.67 59.776C135.745 61.4827 130.881 62.336 125.078 62.336H111.382V96.384H98.966V3.84H123.542ZM124.822 50.432C128.491 50.432 131.521 49.8773 133.91 48.768C136.385 47.6587 138.305 46.2507 139.67 44.544C141.035 42.752 142.017 40.832 142.614 38.784C143.211 36.736 143.51 34.816 143.51 33.024C143.51 31.1467 143.169 29.2267 142.486 27.264C141.889 25.216 140.865 23.3387 139.414 21.632C138.049 19.9253 136.214 18.5173 133.91 17.408C131.691 16.2987 128.961 15.744 125.718 15.744H111.382V50.432H124.822ZM140.054 57.472L164.246 96.384H149.91L125.334 57.856L140.054 57.472Z" fill="black"/>
<path d="M175.307 3.84H236.747V15.744H211.915V96.384H199.499V15.744H175.307V3.84Z" fill="black"/>
<path d="M280.274 3.84C289.575 3.84 296.871 5.76 302.162 9.6C307.538 13.3547 310.226 19.2427 310.226 27.264C310.226 32.128 309.117 36.352 306.898 39.936C304.679 43.52 301.565 46.336 297.554 48.384C293.629 50.432 288.978 51.584 283.602 51.84L281.81 45.44C288.039 45.6107 293.629 46.72 298.578 48.768C303.527 50.816 307.453 53.6747 310.354 57.344C313.255 61.0133 314.706 65.3653 314.706 70.4C314.706 75.008 313.853 78.976 312.146 82.304C310.439 85.5467 308.135 88.2347 305.234 90.368C302.333 92.416 299.047 93.952 295.378 94.976C291.709 95.9147 287.911 96.384 283.986 96.384H256.466V3.84H280.274ZM282.834 44.416C287.954 44.416 291.666 43.008 293.97 40.192C296.274 37.2907 297.426 33.792 297.426 29.696C297.426 24.832 295.933 21.2907 292.946 19.072C289.959 16.8533 285.949 15.744 280.914 15.744H268.882V44.416H282.834ZM283.346 84.864C286.759 84.864 289.874 84.352 292.69 83.328C295.591 82.304 297.853 80.7253 299.474 78.592C301.181 76.4587 302.034 73.7707 302.034 70.528C302.034 66.944 301.053 64.128 299.09 62.08C297.213 60.032 294.781 58.5813 291.794 57.728C288.807 56.7893 285.735 56.32 282.578 56.32H268.882V84.864H283.346Z" fill="black"/>
<path d="M335.591 3.84H395.751V15.744H335.591V43.904H390.631V55.808H335.591V84.48H397.543V96.384H335.591V3.84Z" fill="black"/>
<path d="M409.875 96.384L450.323 0H451.091L491.411 96.384H477.203L446.995 19.456L455.827 13.696L422.035 96.384H409.875ZM433.555 61.312H467.987L472.083 72.064H429.971L433.555 61.312Z" fill="black"/>
<path d="M494.807 3.84H556.247V15.744H531.415V96.384H518.999V15.744H494.807V3.84Z" fill="black"/>
</svg>
